<?xml version="1.0" encoding="utf-8"?>
<!-- Generator: Adobe Illustrator 15.0.0, SVG Export Plug-In . SVG Version: 6.00 Build 0)  -->
<!DOCTYPE svg PUBLIC "-//W3C//DTD SVG 1.1//EN" "http://www.w3.org/Graphics/SVG/1.1/DTD/svg11.dtd">
<svg version="1.1" xmlns="http://www.w3.org/2000/svg" xmlns:xlink="http://www.w3.org/1999/xlink" x="0px" y="0px" width="75px"
	 height="80px" viewBox="0 0 75 80" enable-background="new 0 0 75 80" xml:space="preserve">
<g id="Layer_1">
	<g id="Layer_1_1_">
	</g>
</g>
<g id="Layer_2">
	<g>
		<path fill="#000000" d="M24.918,45.531l-0.03,0.3c-0.2,2.009,0.85,4.298,2.441,5.324l0.234,0.15l0.068-0.27c0.454-1.786-0.759-4.441-2.449-5.361
			L24.918,45.531z M27.3,50.645c-1.098-0.849-2.097-2.58-2.035-4.449C26.561,47.093,27.502,49.149,27.3,50.645z"/>
		<path fill="#000000" d="M36.987,54.759c-0.312-1.935-2.183-3.909-4.003-4.225l-0.27-0.047l0.037,0.271c0.253,1.839,2.159,3.854,3.998,4.229
			l0.284,0.058L36.987,54.759z M33.202,50.993c1.458,0.408,2.932,1.969,3.327,3.525C35.03,54.062,33.556,52.501,33.202,50.993z"/>
		<path fill="#000000" d="M31.768,53.742l0.047-0.284c0.295-1.772-0.941-4.191-2.543-4.979l-0.262-0.128l-0.026,0.29
			c-0.193,2.18,1.128,4.143,2.534,4.956L31.768,53.742z M29.366,48.991c1.221,0.781,2.168,2.637,2.088,4.093
			C30.33,52.3,29.335,50.741,29.366,48.991z"/>
		<path fill="#000000" d="M21.084,51.385l-0.214,0.156l0.209,0.162c0.777,0.607,1.947,0.955,3.208,0.955c1.158,0,2.21-0.302,2.887-0.826l0.218-0.17
			l-0.229-0.154c-0.756-0.509-1.984-0.812-3.285-0.812C22.703,50.695,21.684,50.946,21.084,51.385z M24.288,52.258
			c-1.033,0-2.026-0.259-2.724-0.701c0.55-0.292,1.388-0.462,2.314-0.462c1.065,0,2.104,0.223,2.803,0.591
			C26.075,52.052,25.223,52.258,24.288,52.258z"/>
		<path fill="#000000" d="M32.582,57.584c1.727,0,3.504-0.771,4.225-1.835l0.149-0.22l-0.252-0.083c-0.377-0.123-0.819-0.186-1.313-0.186
			c-1.756,0-3.719,0.766-4.468,1.742l-0.161,0.21l0.245,0.098C31.461,57.492,31.991,57.584,32.582,57.584z M35.39,55.661
			c0.333,0,0.637,0.03,0.909,0.09c-0.737,0.831-2.268,1.434-3.717,1.434c-0.416,0-0.809-0.052-1.152-0.151
			C32.217,56.26,33.906,55.661,35.39,55.661z"/>
		<path fill="#000000" d="M27.78,55.582C27.78,55.582,27.78,55.582,27.78,55.582c1.462,0,2.853-0.471,3.628-1.23l0.198-0.193l-0.247-0.127
			c-0.617-0.318-1.496-0.493-2.473-0.493c-1.553,0-3.017,0.429-3.73,1.092l-0.194,0.18l0.226,0.138
			C25.863,55.356,26.783,55.582,27.78,55.582z M28.887,53.938c0.775,0,1.477,0.114,2.016,0.325
			c-0.733,0.572-1.896,0.919-3.123,0.919c-0.802,0-1.545-0.154-2.127-0.438C26.354,54.256,27.603,53.938,28.887,53.938z"/>
		<path fill="#000000" d="M20.55,46.205l-0.301,0.007l0.041,0.229c0.256,1.444,2.059,2.916,3.572,2.916c0.054,0,0.108-0.002,0.161-0.006
			l0.251-0.018l-0.075-0.241C23.756,47.674,22.271,46.205,20.55,46.205z M20.743,46.613c1.334,0.1,2.518,1.22,2.98,2.34
			C22.515,48.871,21.101,47.749,20.743,46.613z"/>
		<path fill="#000000" d="M49.817,45.675c-1.69,0.92-2.903,3.575-2.448,5.361l0.068,0.27l0.233-0.15c1.592-1.026,2.642-3.315,2.441-5.324l-0.03-0.3
			L49.817,45.675z M47.7,50.645c-0.202-1.495,0.739-3.552,2.035-4.449C49.798,48.064,48.799,49.796,47.7,50.645z"/>
		<path fill="#000000" d="M42.248,50.759l0.037-0.271l-0.27,0.047c-1.82,0.315-3.691,2.29-4.003,4.225l-0.046,0.286l0.284-0.058
			C40.09,54.613,41.995,52.598,42.248,50.759z M41.798,50.993c-0.354,1.508-1.828,3.068-3.327,3.525
			C38.866,52.962,40.34,51.401,41.798,50.993z"/>
		<path fill="#000000" d="M46.016,48.642l-0.025-0.29l-0.262,0.128c-1.604,0.787-2.84,3.206-2.544,4.979l0.048,0.284l0.25-0.145
			C44.888,52.784,46.209,50.821,46.016,48.642z M45.634,48.991c0.031,1.75-0.964,3.309-2.088,4.093
			C43.466,51.628,44.413,49.772,45.634,48.991z"/>
		<path fill="#000000" d="M51.121,50.695c-1.301,0-2.528,0.304-3.284,0.812l-0.229,0.154l0.218,0.17c0.677,0.524,1.729,0.826,2.888,0.826
			c1.262,0,2.431-0.348,3.208-0.955l0.209-0.162l-0.214-0.156C53.316,50.946,52.298,50.695,51.121,50.695z M50.713,52.258
			c-0.936,0-1.788-0.206-2.394-0.572c0.698-0.368,1.737-0.591,2.802-0.591c0.927,0,1.765,0.17,2.314,0.462
			C52.738,51.999,51.745,52.258,50.713,52.258z"/>
		<path fill="#000000" d="M42.418,57.584c0.591,0,1.12-0.092,1.575-0.273l0.245-0.098l-0.16-0.21c-0.75-0.977-2.712-1.742-4.468-1.742
			c-0.494,0-0.937,0.062-1.313,0.186l-0.253,0.083l0.148,0.22C38.914,56.812,40.69,57.584,42.418,57.584z M39.61,55.661
			c1.483,0,3.173,0.599,3.96,1.372c-0.344,0.1-0.736,0.151-1.152,0.151c-1.449,0-2.98-0.603-3.717-1.434
			C38.973,55.691,39.277,55.661,39.61,55.661z"/>
		<path fill="#000000" d="M50.037,54.81l-0.194-0.18c-0.713-0.663-2.177-1.092-3.729-1.092c-0.978,0-1.855,0.175-2.474,0.493l-0.246,0.127
			l0.198,0.193c0.775,0.76,2.166,1.23,3.628,1.23c0.997,0,1.917-0.226,2.591-0.635L50.037,54.81z M47.22,55.183
			c-1.226,0-2.389-0.347-3.122-0.919c0.538-0.211,1.24-0.325,2.016-0.325c1.284,0,2.532,0.317,3.234,0.806
			C48.766,55.028,48.022,55.183,47.22,55.183z"/>
		<path fill="#000000" d="M50.801,49.093l-0.074,0.241l0.251,0.018c0.054,0.004,0.107,0.006,0.161,0.006c1.513,0,3.315-1.472,3.572-2.916
			l0.04-0.229l-0.301-0.007C52.729,46.205,51.244,47.674,50.801,49.093z M51.277,48.953c0.462-1.12,1.646-2.24,2.979-2.34
			C53.899,47.749,52.485,48.872,51.277,48.953z"/>
		<path fill="#000000" d="M29.621,66.274l-1.195,4.976c-0.094,0.407-0.127,0.761-0.127,0.761h-0.016c-0.012,0-0.023-0.345-0.133-0.763l-1.266-4.979
			l-1.135-0.004l-1.311,4.973c-0.113,0.414-0.125,0.764-0.125,0.764h-0.029c0,0-0.031-0.356-0.121-0.764l-0.836-3.729l-0.648,2.717
			l0.799,3.234l1.512,0.003l1.117-4.257c0.123-0.464,0.186-0.939,0.186-0.939h0.021c0,0,0.057,0.476,0.18,0.941l1.096,4.263
			l1.512,0.005l1.873-7.194L29.621,66.274z"/>
		<path fill="#000000" d="M36.547,71.272c-0.096,0.408-0.125,0.761-0.125,0.761H36.4c0,0-0.016-0.349-0.127-0.761L35.01,66.29l-1.135-0.003
			l-1.312,4.976c-0.115,0.414-0.125,0.761-0.125,0.761H32.41c0,0-0.035-0.356-0.123-0.761l-0.842-3.747l-0.646,2.716l0.805,3.248
			l1.512,0.005l1.115-4.256c0.123-0.464,0.184-0.94,0.184-0.94h0.021c0,0,0.059,0.477,0.178,0.941l1.1,4.262l1.506,0.004
			l1.877-7.193l-1.35-0.002L36.547,71.272z"/>
		<path fill="#000000" d="M42.434,66.31l-2.553,7.193l1.346,0.004l0.613-1.845l2.529,0.009l0.6,1.846l1.35,0.004l-2.518-7.205L42.434,66.31z
			 M42.16,70.598l0.641-1.925c0.141-0.404,0.311-1.111,0.311-1.111h0.016c0,0,0.152,0.705,0.283,1.113l0.635,1.929L42.16,70.598z"/>
		<path fill="#000000" d="M51.992,70.499v-0.022c0.762-0.305,1.223-1.104,1.225-1.965c0.004-0.95-0.449-1.646-1.172-1.97
			c-0.311-0.146-0.666-0.205-1.449-0.209l-2.32-0.006h-0.004l-0.018,7.2l1.307,0.004l0.006-2.686l1.264,0.005l1.42,2.689
			l1.459,0.005l-1.471-2.691C52.094,70.599,51.992,70.499,51.992,70.499z M50.75,69.711l-1.182-0.003l0.012-2.254l0.996,0.004
			c1.021,0.004,1.316,0.43,1.311,1.12C51.885,69.298,51.451,69.713,50.75,69.711z"/>
		<path fill="#000000" d="M58.416,66.355l-2.455-0.008l-0.021,7.197l2.459,0.009c2.217,0.006,3.668-1.328,3.678-3.6
			C62.078,67.682,60.637,66.363,58.416,66.355z M58.328,72.429l-1.076-0.004l0.012-4.949l1.08,0.005
			c1.434,0.005,2.389,0.867,2.383,2.469C60.725,71.576,59.789,72.431,58.328,72.429z"/>
		<path fill="#000000" d="M65.184,68.323c0-0.51,0.48-0.861,1.088-0.861c0.9,0.001,1.588,0.632,1.588,0.632l0.572-1.062
			c0,0-0.729-0.772-2.148-0.777c-1.377-0.001-2.412,0.886-2.418,2.083c-0.008,2.21,3.391,1.993,3.389,3.284
			c0,0.587-0.498,0.872-1.047,0.869c-1.014-0.003-1.791-0.764-1.791-0.764l-0.715,0.981c0,0,0.879,0.986,2.484,0.991
			c1.496,0.003,2.369-0.959,2.373-2.104C68.568,69.294,65.184,69.597,65.184,68.323z"/>
		<path fill="#000000" d="M8.996,66.216l-2.555,7.191l1.348,0.006l0.617-1.844l2.523,0.007l0.602,1.846l1.35,0.005l-2.516-7.209L8.996,66.216z
			 M8.723,70.505l0.641-1.923c0.145-0.407,0.311-1.117,0.311-1.117h0.02c0,0,0.148,0.713,0.279,1.12l0.639,1.924L8.723,70.505z"/>
		<path fill="#000000" d="M21.502,66.253l-1.201,4.978c-0.096,0.401-0.123,0.759-0.123,0.759h-0.02c-0.014,0-0.018-0.347-0.133-0.759l-1.26-4.986
			l-1.139-0.003l-1.312,4.978c-0.111,0.413-0.123,0.759-0.123,0.759H16.16c0,0-0.029-0.353-0.121-0.76l-1.119-4.985l-1.35-0.004
			l1.785,7.206l1.508,0.003l1.119-4.255c0.123-0.467,0.186-0.944,0.186-0.944h0.02c0,0,0.064,0.478,0.18,0.945l1.096,4.259
			l1.512,0.006l1.875-7.194L21.502,66.253z"/>
		<polygon fill="#000000" points="11.082,15.89 14.057,15.89 14.057,18.618 15.238,18.618 15.238,12.118 14.057,12.118 14.057,14.874 
			11.082,14.874 11.082,12.118 9.901,12.118 9.901,18.618 11.082,18.618 		"/>
		<path fill="#000000" d="M19.801,18.728c1.913,0,3.36-1.492,3.36-3.405c0-1.858-1.447-3.314-3.36-3.314s-3.36,1.456-3.36,3.314
			C16.441,17.235,17.888,18.728,19.801,18.728z M19.801,13.089c1.19,0,2.143,0.951,2.143,2.233c0,1.337-0.952,2.325-2.143,2.325
			s-2.143-0.988-2.143-2.325C17.659,14.04,18.611,13.089,19.801,13.089z"/>
		<path fill="#000000" d="M25.545,14.874c0-0.385-0.064-1.008-0.064-1.008H25.5c0,0,0.293,0.632,0.54,1.008l2.463,3.744h1.172v-6.5h-1.172v3.754
			c0,0.384,0.064,1.007,0.064,1.007h-0.019c0,0-0.293-0.632-0.54-1.007l-2.463-3.754h-1.181v6.5h1.181V14.874z"/>
		<path fill="#000000" d="M34.237,18.728c1.913,0,3.36-1.492,3.36-3.405c0-1.858-1.447-3.314-3.36-3.314s-3.36,1.456-3.36,3.314
			C30.876,17.235,32.324,18.728,34.237,18.728z M34.237,13.089c1.19,0,2.143,0.951,2.143,2.233c0,1.337-0.952,2.325-2.143,2.325
			s-2.143-0.988-2.143-2.325C32.094,14.04,33.046,13.089,34.237,13.089z"/>
		<path fill="#000000" d="M39.98,16.192h1.137l1.289,2.426h1.318l-1.336-2.426c-0.129-0.229-0.219-0.32-0.219-0.32v-0.019
			c0.686-0.274,1.098-0.998,1.098-1.776c0-0.86-0.412-1.483-1.062-1.776c-0.283-0.128-0.604-0.183-1.309-0.183h-2.096v6.5h1.18
			V16.192z M39.98,13.134h0.898c0.924,0,1.189,0.385,1.189,1.008c0,0.649-0.395,1.025-1.025,1.025H39.98V13.134z"/>
		<path fill="#000000" d="M45.779,16.952h2.279l0.551,1.666h1.217l-2.289-6.5h-1.236l-2.289,6.5h1.219L45.779,16.952z M46.641,14.251
			c0.127-0.366,0.273-1.007,0.273-1.007h0.02c0,0,0.137,0.641,0.256,1.007l0.576,1.739h-1.703L46.641,14.251z"/>
		<path fill="#000000" d="M55.258,16.732c0-0.659-0.338-1.318-1.053-1.529v-0.019c0.494-0.266,0.787-0.787,0.787-1.392
			c0-1.071-0.832-1.675-2.004-1.675h-2.326v6.5h2.354C54.215,18.618,55.258,18.032,55.258,16.732z M51.844,13.134h1.125
			c0.551,0,0.824,0.339,0.824,0.806c0,0.468-0.293,0.833-0.805,0.833h-1.145V13.134z M51.844,15.726h1.264
			c0.594,0,0.941,0.394,0.941,0.934c0,0.549-0.338,0.942-0.941,0.942h-1.264V15.726z"/>
		<polygon fill="#000000" points="60.535,17.602 57.725,17.602 57.725,12.118 56.543,12.118 56.543,18.618 60.535,18.618 		"/>
		<polygon fill="#000000" points="65.518,17.602 62.662,17.602 62.662,15.854 64.85,15.854 64.85,14.837 62.662,14.837 62.662,13.134 
			65.371,13.134 65.371,12.118 61.48,12.118 61.48,18.618 65.518,18.618 		"/>
		<path fill="#000000" d="M21.601,22.977l-1.272,3.213c-0.146,0.385-0.321,0.952-0.321,0.952H19.99c0,0-0.184-0.567-0.33-0.952l-1.272-3.213h-1.264
			l-0.531,6.5h1.182l0.274-3.635c0.027-0.431,0.009-1.017,0.009-1.017h0.019c0,0,0.202,0.642,0.357,1.017l1.044,2.518h1.034
			l1.053-2.518c0.155-0.375,0.348-1.007,0.348-1.007h0.019c0,0-0.019,0.576,0.01,1.007l0.274,3.635h1.172l-0.522-6.5H21.601z"/>
		<polygon fill="#000000" points="28.727,23.992 28.727,22.977 24.836,22.977 24.836,29.477 28.874,29.477 28.874,28.46 26.017,28.46 
			26.017,26.712 28.206,26.712 28.206,25.695 26.017,25.695 26.017,23.992 		"/>
		<path fill="#000000" d="M31.285,25.732c0-0.385-0.063-1.008-0.063-1.008h0.018c0,0,0.293,0.632,0.54,1.008l2.463,3.744h1.172v-6.5h-1.172v3.753
			c0,0.385,0.064,1.008,0.064,1.008h-0.019c0,0-0.293-0.632-0.54-1.008l-2.463-3.753h-1.181v6.5h1.181V25.732z"/>
		<polygon fill="#000000" points="38.412,29.477 39.592,29.477 39.592,23.992 41.727,23.992 41.727,22.977 36.278,22.977 36.278,23.992 
			38.412,23.992 		"/>
		<rect fill="#000000" x="42.59" y="22.977" width="1.18" height="6.5"/>
		<path fill="#000000" d="M51.691,26.181c0-1.858-1.447-3.314-3.361-3.314c-1.912,0-3.359,1.456-3.359,3.314c0,1.913,1.447,3.406,3.359,3.406
			C50.244,29.587,51.691,28.094,51.691,26.181z M48.33,28.506c-1.189,0-2.143-0.988-2.143-2.325c0-1.281,0.953-2.234,2.143-2.234
			c1.191,0,2.143,0.953,2.143,2.234C50.473,27.518,49.521,28.506,48.33,28.506z"/>
		<path fill="#000000" d="M52.895,22.977v6.5h1.18v-3.744c0-0.385-0.064-1.008-0.064-1.008h0.02c0,0,0.293,0.632,0.539,1.008l2.463,3.744h1.172
			v-6.5h-1.172v3.753c0,0.385,0.064,1.008,0.064,1.008h-0.018c0,0-0.293-0.632-0.541-1.008l-2.463-3.753H52.895z"/>
	</g>
</g>
</svg>
