<?xml version="1.0" encoding="utf-8"?>
<!DOCTYPE svg PUBLIC "-//W3C//DTD SVG 1.1//EN" "http://www.w3.org/Graphics/SVG/1.1/DTD/svg11.dtd">
<svg version="1.1" id="Capa_1" xmlns="http://www.w3.org/2000/svg" xmlns:xlink="http://www.w3.org/1999/xlink" x="0px" y="0px"
	 width="82px" height="82px" viewBox="0 0 82 82" enable-background="new 0 0 82 82" xml:space="preserve">
<g id="Layer_1">
	<g id="Layer_1_1_">
	</g>
</g>
<path fill="#3C948B" d="M30.573,52.176l0.074-0.296c0.498-1.956-0.831-4.862-2.682-5.872l-0.291-0.156l-0.033,0.328
	c-0.219,2.199,0.931,4.707,2.673,5.829L30.573,52.176z M30.285,51.451c-1.202-0.93-2.296-2.826-2.229-4.873
	C29.476,47.563,30.506,49.813,30.285,51.451z"/>
<path fill="#3C948B" d="M40.894,55.957c-0.342-2.119-2.39-4.281-4.384-4.627l-0.295-0.053l0.041,0.297c0.277,2.016,2.365,4.221,4.379,4.632
	l0.311,0.063L40.894,55.957z M36.749,51.833c1.597,0.444,3.211,2.155,3.644,3.858C38.75,55.193,37.137,53.484,36.749,51.833z"/>
<path fill="#3C948B" d="M35.178,54.844l0.052-0.313c0.323-1.94-1.031-4.59-2.785-5.452l-0.287-0.14l-0.028,0.315
	c-0.211,2.388,1.235,4.54,2.775,5.429L35.178,54.844z M32.548,49.641c1.337,0.854,2.375,2.887,2.287,4.481
	C33.604,53.264,32.514,51.557,32.548,49.641z"/>
<path fill="#3C948B" d="M23.478,52.262l-0.234,0.172l0.229,0.178c0.851,0.664,2.132,1.045,3.513,1.045c1.268,0,2.42-0.331,3.162-0.904l0.239-0.186
	l-0.251-0.17c-0.828-0.558-2.173-0.89-3.598-0.89C25.251,51.507,24.135,51.779,23.478,52.262z M26.987,53.219
	c-1.132,0-2.219-0.283-2.983-0.769c0.602-0.319,1.52-0.505,2.534-0.505c1.166,0,2.304,0.242,3.07,0.646
	C28.944,52.993,28.011,53.219,26.987,53.219z"/>
<path fill="#3C948B" d="M36.07,58.051c1.892,0,3.837-0.845,4.627-2.01l0.163-0.24l-0.276-0.093c-0.412-0.134-0.897-0.205-1.438-0.205
	c-1.924,0-4.073,0.841-4.894,1.908l-0.176,0.229l0.268,0.109C34.842,57.95,35.423,58.051,36.07,58.051z M39.146,55.945
	c0.364,0,0.697,0.031,0.995,0.098c-0.808,0.91-2.484,1.57-4.071,1.57c-0.456,0-0.886-0.057-1.261-0.162
	C35.67,56.602,37.52,55.945,39.146,55.945z"/>
<path fill="#3C948B" d="M30.811,56.857L30.811,56.857c1.602,0,3.125-0.516,3.974-1.348l0.217-0.209L34.73,55.16
	c-0.676-0.346-1.639-0.537-2.708-0.537c-1.701,0-3.304,0.473-4.085,1.195l-0.212,0.199l0.248,0.151
	C28.711,56.609,29.719,56.857,30.811,56.857z M32.023,55.059c0.849,0,1.617,0.125,2.208,0.355c-0.803,0.626-2.077,1.006-3.42,1.006
	c-0.878,0-1.692-0.169-2.329-0.479C29.249,55.406,30.617,55.059,32.023,55.059z"/>
<path fill="#3C948B" d="M22.608,46.848c0.28,1.582,2.255,3.193,3.912,3.193c0.06,0,0.119-0.002,0.177-0.006l0.275-0.021l-0.082-0.266
	c-0.484-1.555-2.112-3.162-3.997-3.162l-0.33,0.008L22.608,46.848z M26.368,49.6c-1.323-0.091-2.873-1.32-3.263-2.563
	C24.565,47.145,25.862,48.372,26.368,49.6z"/>
<path fill="#3C948B" d="M52.266,51.88l0.073,0.296l0.253-0.164c1.745-1.121,2.896-3.627,2.672-5.828l-0.031-0.332l-0.291,0.16
	C53.094,47.018,51.766,49.924,52.266,51.88z M54.854,46.578c0.068,2.047-1.026,3.943-2.228,4.873
	C52.404,49.813,53.438,47.563,54.854,46.578z"/>
<path fill="#3C948B" d="M42.02,55.957l-0.053,0.313l0.313-0.063c2.015-0.409,4.102-2.616,4.379-4.632l0.04-0.298l-0.296,0.054
	C44.408,51.676,42.357,53.838,42.02,55.957z M42.52,55.693c0.435-1.705,2.047-3.414,3.645-3.857
	C45.773,53.484,44.162,55.193,42.52,55.693z"/>
<path fill="#3C948B" d="M50.782,49.259l-0.024-0.319l-0.29,0.143c-1.757,0.861-3.11,3.51-2.784,5.453l0.051,0.313l0.273-0.162
	C49.548,53.794,50.994,51.645,50.782,49.259z M50.363,49.641c0.035,1.916-1.055,3.623-2.286,4.481
	C47.988,52.527,49.027,50.495,50.363,49.641z"/>
<path fill="#3C948B" d="M56.373,51.507c-1.425,0-2.77,0.332-3.598,0.89l-0.25,0.168l0.24,0.187c0.741,0.574,1.895,0.903,3.164,0.903
	c1.385,0,2.663-0.381,3.512-1.045l0.229-0.178l-0.233-0.17C58.777,51.779,57.662,51.507,56.373,51.507z M55.926,53.219
	c-1.023,0-1.958-0.226-2.621-0.628c0.766-0.401,1.902-0.646,3.068-0.646c1.016,0,1.934,0.186,2.535,0.505
	C58.145,52.936,57.057,53.219,55.926,53.219z"/>
<path fill="#3C948B" d="M42.328,55.708l-0.276,0.093l0.161,0.24c0.792,1.165,2.736,2.01,4.629,2.01c0.646,0,1.227-0.101,1.727-0.3l0.269-0.106
	l-0.176-0.229c-0.821-1.069-2.97-1.905-4.896-1.905C43.227,55.508,42.741,55.574,42.328,55.708z M46.842,57.613
	c-1.587,0-3.264-0.66-4.07-1.57c0.297-0.064,0.631-0.098,0.994-0.098c1.623,0,3.478,0.654,4.338,1.502
	C47.729,57.557,47.298,57.613,46.842,57.613z"/>
<path fill="#3C948B" d="M55.188,56.014l-0.213-0.197c-0.781-0.728-2.385-1.195-4.086-1.195c-1.068,0-2.029,0.191-2.707,0.54L47.911,55.3
	l0.216,0.212c0.85,0.832,2.373,1.346,3.975,1.346c1.092,0,2.1-0.248,2.838-0.696L55.188,56.014z M52.102,56.422
	c-1.343,0-2.617-0.381-3.42-1.008c0.59-0.23,1.358-0.354,2.207-0.354c1.407,0,2.774,0.346,3.543,0.883
	C53.794,56.251,52.979,56.422,52.102,56.422z"/>
<path fill="#3C948B" d="M56.021,49.752l-0.08,0.264l0.274,0.021c0.062,0.004,0.117,0.006,0.177,0.006c1.656,0,3.631-1.61,3.912-3.192l0.043-0.25
	l-0.328-0.01C58.134,46.589,56.508,48.197,56.021,49.752z M56.544,49.6c0.505-1.228,1.804-2.455,3.263-2.563
	C59.415,48.279,57.866,49.51,56.544,49.6z"/>
<path fill="#3C948B" d="M32.827,66.566l-1.309,5.451c-0.103,0.443-0.139,0.834-0.139,0.834h-0.017c-0.013,0-0.025-0.379-0.146-0.836l-1.387-5.453
	l-1.243-0.004l-1.436,5.445c-0.124,0.453-0.137,0.836-0.137,0.836h-0.031c0,0-0.034-0.39-0.133-0.836l-0.916-4.084l-0.709,2.977
	l0.875,3.539l1.656,0.002l1.223-4.662c0.135-0.508,0.204-1.026,0.204-1.026h0.023c0,0,0.063,0.521,0.197,1.028l1.2,4.67l1.656,0.006
	l2.051-7.881L32.827,66.566z"/>
<path fill="#3C948B" d="M40.412,72.041c-0.104,0.447-0.137,0.834-0.137,0.834h-0.024c0,0-0.018-0.383-0.139-0.834l-1.384-5.456l-1.243-0.003
	l-1.437,5.449c-0.126,0.453-0.137,0.832-0.137,0.832h-0.03c0,0-0.039-0.387-0.135-0.832l-0.923-4.104l-0.707,2.977l0.882,3.557
	l1.656,0.004l1.221-4.66c0.135-0.507,0.201-1.027,0.201-1.027H38.1c0,0,0.065,0.525,0.195,1.029l1.205,4.67l1.649,0.004l2.057-7.875
	l-1.481-0.002L40.412,72.041z"/>
<path fill="#3C948B" d="M46.859,66.607l-2.797,7.877l1.475,0.004l0.672-2.02l2.77,0.01l0.658,2.021l1.477,0.004l-2.756-7.891L46.859,66.607z
	 M46.561,71.303l0.701-2.107c0.153-0.441,0.34-1.217,0.34-1.217h0.021c0,0,0.164,0.772,0.312,1.219l0.694,2.113L46.561,71.303z"/>
<path fill="#3C948B" d="M57.327,71.195V71.17c0.834-0.333,1.339-1.208,1.341-2.15c0.005-1.041-0.491-1.805-1.283-2.158
	c-0.34-0.158-0.729-0.225-1.587-0.229l-2.541-0.007h-0.004l-0.021,7.886l1.432,0.004l0.007-2.94l1.388,0.005l1.555,2.943
	l1.599,0.004l-1.614-2.943C57.438,71.305,57.327,71.195,57.327,71.195z M55.967,70.332l-1.294-0.004l0.013-2.469l1.092,0.004
	c1.119,0.006,1.44,0.473,1.436,1.228C57.21,69.879,56.734,70.334,55.967,70.332z"/>
<path fill="#3C948B" d="M64.361,66.656l-2.688-0.008l-0.023,7.879l2.692,0.012c2.433,0.007,4.019-1.454,4.031-3.943
	C68.373,68.109,66.795,66.665,64.361,66.656z M64.268,73.311l-1.18-0.006l0.014-5.42l1.183,0.004
	c1.569,0.008,2.616,0.95,2.608,2.707C66.891,72.375,65.866,73.313,64.268,73.311z"/>
<path fill="#3C948B" d="M71.773,68.811c0-0.558,0.526-0.94,1.191-0.94c0.985,0.001,1.738,0.69,1.738,0.69l0.627-1.162c0,0-0.798-0.846-2.35-0.852
	c-1.508-0.001-2.643,0.971-2.647,2.281c-0.013,2.42,3.713,2.184,3.711,3.597c0,0.644-0.546,0.955-1.146,0.951
	c-1.113-0.003-1.963-0.837-1.963-0.837l-0.781,1.072c0,0,0.962,1.076,2.717,1.084c1.639,0.006,2.595-1.051,2.6-2.305
	C75.48,69.875,71.773,70.208,71.773,68.811z"/>
<path fill="#3C948B" d="M10.239,66.504l-2.798,7.875l1.477,0.008l0.675-2.021l2.764,0.01l0.659,2.021l1.479,0.006l-2.755-7.896L10.239,66.504z
	 M9.94,71.201l0.702-2.105c0.159-0.445,0.34-1.224,0.34-1.224h0.022c0,0,0.162,0.78,0.306,1.228l0.699,2.107L9.94,71.201z"/>
<path fill="#3C948B" d="M23.936,66.545l-1.316,5.451c-0.104,0.439-0.134,0.832-0.134,0.832h-0.021c-0.016,0-0.02-0.381-0.146-0.832l-1.38-5.458
	l-1.248-0.003l-1.437,5.451c-0.121,0.451-0.135,0.83-0.135,0.83h-0.034c0,0-0.032-0.387-0.132-0.832l-1.226-5.459l-1.479-0.004
	l1.955,7.892l1.651,0.004l1.226-4.66c0.135-0.512,0.204-1.032,0.204-1.032h0.022c0,0,0.07,0.524,0.197,1.035l1.2,4.662l1.656,0.008
	l2.053-7.877L23.936,66.545z"/>
<g>
	<polygon fill="#3C948B" points="10.511,12.311 13.98,12.311 13.98,15.492 15.357,15.492 15.357,7.913 13.98,7.913 13.98,11.125 10.511,11.125 
		10.511,7.913 9.134,7.913 9.134,15.492 10.511,15.492 	"/>
	<path fill="#3C948B" d="M20.677,15.62c2.23,0,3.918-1.741,3.918-3.971c0-2.166-1.688-3.864-3.918-3.864c-2.229,0-3.917,1.698-3.917,3.864
		C16.76,13.879,18.448,15.62,20.677,15.62z M20.677,9.044c1.389,0,2.499,1.11,2.499,2.604c0,1.56-1.109,2.711-2.499,2.711
		c-1.389,0-2.497-1.152-2.497-2.711C18.181,10.154,19.29,9.044,20.677,9.044z"/>
	<path fill="#3C948B" d="M27.374,11.125c0-0.449-0.074-1.175-0.074-1.175h0.023c0,0,0.341,0.737,0.629,1.175l2.872,4.366h1.366V7.913h-1.366v4.376
		c0,0.447,0.075,1.174,0.075,1.174h-0.022c0,0-0.342-0.737-0.63-1.174l-2.873-4.376h-1.377v7.579h1.377V11.125z"/>
	<path fill="#3C948B" d="M37.509,15.62c2.231,0,3.919-1.741,3.919-3.971c0-2.166-1.688-3.864-3.919-3.864c-2.229,0-3.917,1.698-3.917,3.864
		C33.592,13.879,35.279,15.62,37.509,15.62z M37.509,9.044c1.389,0,2.499,1.11,2.499,2.604c0,1.56-1.109,2.711-2.499,2.711
		c-1.387,0-2.497-1.152-2.497-2.711C35.012,10.154,36.122,9.044,37.509,9.044z"/>
	<path fill="#3C948B" d="M44.206,12.662h1.326l1.503,2.83h1.538l-1.558-2.83c-0.153-0.267-0.258-0.373-0.258-0.373v-0.022
		c0.802-0.32,1.281-1.164,1.281-2.07c0-1.003-0.479-1.729-1.238-2.071c-0.331-0.15-0.703-0.213-1.526-0.213H42.83v7.579h1.376
		V12.662z M44.206,9.097h1.046c1.079,0,1.387,0.45,1.387,1.176c0,0.757-0.461,1.195-1.194,1.195h-1.238V9.097z"/>
	<path fill="#3C948B" d="M50.968,13.549h2.657l0.643,1.943h1.42l-2.67-7.579h-1.44l-2.67,7.579h1.421L50.968,13.549z M51.973,10.399
		c0.148-0.426,0.318-1.174,0.318-1.174h0.022c0,0,0.16,0.748,0.299,1.174l0.672,2.028h-1.986L51.973,10.399z"/>
	<path fill="#3C948B" d="M62.02,13.292c0-0.769-0.394-1.537-1.228-1.783v-0.022c0.576-0.311,0.919-0.918,0.919-1.623
		c0-1.249-0.972-1.954-2.337-1.954h-2.713v7.58h2.743C60.804,15.492,62.02,14.807,62.02,13.292z M58.04,9.097h1.311
		c0.643,0,0.961,0.396,0.961,0.94c0,0.546-0.341,0.971-0.938,0.971h-1.335L58.04,9.097L58.04,9.097z M58.04,12.12h1.472
		c0.694,0,1.099,0.459,1.099,1.089c0,0.64-0.394,1.098-1.099,1.098H58.04V12.12z"/>
	<polygon fill="#3C948B" points="68.174,14.307 64.896,14.307 64.896,7.913 63.52,7.913 63.52,15.492 68.174,15.492 	"/>
	<polygon fill="#3C948B" points="73.982,14.307 70.653,14.307 70.653,12.269 73.204,12.269 73.204,11.083 70.653,11.083 70.653,9.097 73.813,9.097 
		73.813,7.913 69.275,7.913 69.275,15.492 73.982,15.492 	"/>
	<path fill="#3C948B" d="M22.776,20.575l-1.483,3.746c-0.17,0.449-0.374,1.11-0.374,1.11h-0.021c0,0-0.215-0.661-0.385-1.11l-1.483-3.746h-1.475
		l-0.619,7.578h1.378l0.319-4.238c0.032-0.502,0.012-1.185,0.012-1.185h0.022c0,0,0.235,0.749,0.416,1.185l1.217,2.936h1.206
		l1.228-2.936c0.182-0.437,0.405-1.174,0.405-1.174h0.022c0,0-0.022,0.672,0.012,1.174l0.319,4.238h1.366l-0.607-7.578H22.776z"/>
	<polygon fill="#3C948B" points="31.085,21.758 31.085,20.575 26.549,20.575 26.549,28.152 31.257,28.152 31.257,26.968 27.927,26.968 
		27.927,24.929 30.478,24.929 30.478,23.743 27.927,23.743 27.927,21.758 	"/>
	<path fill="#3C948B" d="M34.068,23.786c0-0.448-0.074-1.174-0.074-1.174h0.021c0,0,0.343,0.736,0.63,1.174l2.873,4.367h1.366v-7.579h-1.366v4.375
		c0,0.449,0.073,1.175,0.073,1.175H37.57c0,0-0.343-0.736-0.631-1.175l-2.871-4.375h-1.377v7.579h1.377V23.786z"/>
	<polygon fill="#3C948B" points="42.378,28.152 43.753,28.152 43.753,21.758 46.243,21.758 46.243,20.575 39.89,20.575 39.89,21.758 42.378,21.758 
			"/>
	<rect fill="#3C948B" x="47.249" y="20.575" width="1.376" height="7.578"/>
	<path fill="#3C948B" d="M57.861,24.309c0-2.166-1.688-3.863-3.92-3.863c-2.229,0-3.916,1.697-3.916,3.863c0,2.231,1.687,3.972,3.916,3.972
		C56.174,28.281,57.861,26.54,57.861,24.309z M53.941,27.021c-1.386,0-2.498-1.152-2.498-2.712c0-1.492,1.112-2.604,2.498-2.604
		c1.39,0,2.5,1.112,2.5,2.604C56.441,25.869,55.331,27.021,53.941,27.021z"/>
	<path fill="#3C948B" d="M59.265,20.575v7.578h1.377v-4.365c0-0.449-0.075-1.175-0.075-1.175h0.023c0,0,0.342,0.737,0.629,1.175l2.871,4.365h1.367
		v-7.578H64.09v4.375c0,0.448,0.074,1.175,0.074,1.175h-0.021c0,0-0.341-0.736-0.631-1.175l-2.87-4.375H59.265z"/>
</g>
</svg>
